<svg xmlns="http://www.w3.org/2000/svg" viewBox="0 0 265.71 247.92" fill="#E95221">
    <path
        d="M298.21,71.39a14.93,14.93,0,0,0-17.88,11.2l-17.21,75-129.91-1.2L101.9,31.17a15,15,0,0,0-7.28-9.46L66.2,6.08A14.92,14.92,0,0,0,51.82,32.23L74.53,44.72l31.89,127.52L89.25,185.79A8.52,8.52,0,0,0,86,192.48v21.31a8.52,8.52,0,0,0,8.4,8.53l24.06.34A17,17,0,1,0,142,223l112.53,1.58a17,17,0,1,0,26.94.38l14.67.2h.13a8.53,8.53,0,0,0,.11-17l-193.35-2.72v-8.77l14.18-11.2a14.36,14.36,0,0,0,4.15.67l153.44,1.43H275a14.93,14.93,0,0,0,14.54-11.59l19.91-86.66A14.93,14.93,0,0,0,298.21,71.39Z"
        transform="translate(-44.09 -4.24)" stroke-miterlimit="10" stroke-linecap="round" stroke-linejoin="round">
    </path>
    <path
        d="M233.64,77.44H219.77V37.3a8.91,8.91,0,0,0-8.91-8.91H184.14a8.91,8.91,0,0,0-8.9,8.91V77.44H161.37c-6.14,0-8.16,4-4.5,9l10.32,13.84,13.33,17.9L190.84,132c3.67,4.92,9.67,4.92,13.33,0l10.32-13.85,13.33-17.9,10.32-13.84C241.8,81.46,239.78,77.44,233.64,77.44Z"
        transform="translate(-44.09 -4.24)" sstroke-miterlimit="10" stroke-linecap="round" stroke-linejoin="round">
    </path>
</svg>