<svg xmlns="http://www.w3.org/2000/svg" viewBox="0 0 245.86 244.44" fill="#E95221">
    <path
        d="M249.31,163.93H225.14a16.46,16.46,0,0,0-13.49,7l-16.9,24.18a16.46,16.46,0,0,1-27.12-.18l-16.17-23.82a16.48,16.48,0,0,0-13.62-7.22H114.11a55.34,55.34,0,0,0-55.33,55.34v24.55A8.23,8.23,0,0,0,67,252.06h229.4a8.24,8.24,0,0,0,8.23-8.24V219.27A55.34,55.34,0,0,0,249.31,163.93Zm-67.57-20.58a67.87,67.87,0,1,0-67.86-67.87A67.86,67.86,0,0,0,181.74,143.35Z"
        transform="translate(-58.78 -7.61)"></path>
</svg>