<svg version="1.1" id="Layer_1" xmlns="http://www.w3.org/2000/svg" xmlns:xlink="http://www.w3.org/1999/xlink" x="0px" y="0px" viewBox="0 0 850.39 850.39" style="enable-background:new 0 0 850.39 850.39;" xml:space="preserve">
							 
							   <path fill="#E75325" d="M797.17,444.28L641.85,206.29c-14.4-37.32-50.59-63.8-92.99-63.8c-35.78,0-67.14,18.86-84.72,47.18
								   c-11.68-9.55-26.59-15.28-42.85-15.28c-18.79,0-35.78,7.65-48.06,20c-16.92-30.92-49.75-51.89-87.48-51.89
								   c-38.92,0-72.61,22.33-89.02,54.86L53.74,443.61c-12.2,23.22-19.14,49.61-19.14,77.61c0,92.32,75.11,167.44,167.44,167.44
								   c55.47,0,95.68-27.91,135.19-68.81l88.06-98.63l88.06,98.63c39.51,36.92,79.72,68.81,135.19,68.81
								   c92.33,0,167.44-75.11,167.44-167.44C815.97,493.49,809.15,467.34,797.17,444.28z M202.03,628.85
								   c-59.45,0-107.64-48.19-107.64-107.64s48.19-107.64,107.64-107.64s107.64,48.19,107.64,107.64S261.48,628.85,202.03,628.85z
									M648.53,628.85c-59.45,0-107.64-48.19-107.64-107.64s48.19-107.64,107.64-107.64s107.64,48.19,107.64,107.64
								   S707.98,628.85,648.53,628.85z"></path>
							   </svg>